# xmcd
#
# Track frame offsets: 
#        150
#        18467
#        36670
#        56582
#        73035
#        91312
#        107332
#        126550
#        145835
#        164085
#        182842
#        199587
#
# Disc length: 3044 seconds
#
# Revision: 15
# Processed by: cddbd v1.5.1PL0 Copyright (c) Steve Scherf et al.
# Submitted via: ExactAudioCopy v0.90b4
#
DISCID=b20be20c
DTITLE=Do As Infinity - DEEP FOREST
DYEAR=2001
DGENRE=Pop
TTITLE0=Fukai Mori 
TTITLE1=Touku Made (Album Version)
TTITLE2=Tadaima
TTITLE3=Get yourself
TTITLE4=Tsubasa no Keikaku 
TTITLE5=Kouzoukaikaku
TTITLE6=Koiotome
TTITLE7=Week!
TTITLE8=Hang out
TTITLE9=Boukensyatachi
TTITLE10=Enrai
TTITLE11=Signal (Album remix)
EXTD=YEAR: 2001
EXTT0=
EXTT1=
EXTT2=
EXTT3=
EXTT4=
EXTT5=
EXTT6=
EXTT7=
EXTT8=
EXTT9=
EXTT10=
EXTT11=
PLAYORDER=
